<mxfile host="Electron" modified="2024-05-04T12:38:32.929Z" agent="Mozilla/5.0 (Windows NT 10.0; Win64; x64) AppleWebKit/537.36 (KHTML, like Gecko) draw.io/24.2.5 Chrome/120.0.6099.109 Electron/28.1.0 Safari/537.36" etag="KAUtJLxLKBeTM5wH9pX4" version="24.2.5" type="device">
  <diagram name="Page-1" id="e7e014a7-5840-1c2e-5031-d8a46d1fe8dd">
    <mxGraphModel dx="1290" dy="621" grid="1" gridSize="10" guides="1" tooltips="1" connect="1" arrows="1" fold="1" page="1" pageScale="1" pageWidth="1169" pageHeight="826" background="none" math="0" shadow="0">
      <root>
        <mxCell id="0" />
        <mxCell id="1" parent="0" />
        <mxCell id="2" value="User" style="swimlane;whiteSpace=wrap" parent="1" vertex="1">
          <mxGeometry x="129" y="128" width="290.5" height="632" as="geometry" />
        </mxCell>
        <mxCell id="5" value="" style="ellipse;shape=startState;fillColor=#000000;strokeColor=#ff0000;" parent="2" vertex="1">
          <mxGeometry x="80" y="40" width="30" height="30" as="geometry" />
        </mxCell>
        <mxCell id="6" value="" style="edgeStyle=elbowEdgeStyle;elbow=horizontal;verticalAlign=bottom;endArrow=open;endSize=8;strokeColor=#FF0000;endFill=1;rounded=0;exitX=0.5;exitY=1;exitDx=0;exitDy=0;" parent="2" source="5" target="7" edge="1">
          <mxGeometry x="100" y="40" as="geometry">
            <mxPoint x="115" y="110" as="targetPoint" />
            <mxPoint x="91" y="62" as="sourcePoint" />
          </mxGeometry>
        </mxCell>
        <mxCell id="7" value="User opens app" style="rounded=1;whiteSpace=wrap;html=1;arcSize=40;fontColor=#000000;fillColor=#ffffc0;strokeColor=#ff0000;" parent="2" vertex="1">
          <mxGeometry x="40" y="92" width="110" height="50" as="geometry" />
        </mxCell>
        <mxCell id="IJ_AfifvzG2OEcTAvEiw-44" value="Sign up/&lt;div&gt;Log in&lt;/div&gt;" style="rhombus;whiteSpace=wrap;html=1;fontColor=#000000;fillColor=#ffffc0;strokeColor=#ff0000;" vertex="1" parent="2">
          <mxGeometry x="45" y="182" width="100" height="52" as="geometry" />
        </mxCell>
        <mxCell id="IJ_AfifvzG2OEcTAvEiw-45" value="[Sign up]" style="edgeStyle=orthogonalEdgeStyle;html=1;align=left;verticalAlign=bottom;endArrow=open;endSize=8;strokeColor=#ff0000;rounded=0;entryX=0.5;entryY=0;entryDx=0;entryDy=0;" edge="1" source="IJ_AfifvzG2OEcTAvEiw-44" parent="2" target="IJ_AfifvzG2OEcTAvEiw-57">
          <mxGeometry x="-1" relative="1" as="geometry">
            <mxPoint x="196" y="192" as="targetPoint" />
          </mxGeometry>
        </mxCell>
        <mxCell id="IJ_AfifvzG2OEcTAvEiw-46" value="[Log in]" style="edgeStyle=orthogonalEdgeStyle;html=1;align=left;verticalAlign=top;endArrow=open;endSize=8;strokeColor=#ff0000;rounded=0;entryX=0.5;entryY=0;entryDx=0;entryDy=0;" edge="1" source="IJ_AfifvzG2OEcTAvEiw-44" parent="2" target="IJ_AfifvzG2OEcTAvEiw-49">
          <mxGeometry x="-1" relative="1" as="geometry">
            <mxPoint x="95.5" y="285" as="targetPoint" />
          </mxGeometry>
        </mxCell>
        <mxCell id="IJ_AfifvzG2OEcTAvEiw-48" value="" style="edgeStyle=orthogonalEdgeStyle;html=1;verticalAlign=bottom;endArrow=open;endSize=8;strokeColor=#ff0000;rounded=0;entryX=0;entryY=0.5;entryDx=0;entryDy=0;exitX=0;exitY=0.5;exitDx=0;exitDy=0;" edge="1" source="7" parent="2" target="IJ_AfifvzG2OEcTAvEiw-44">
          <mxGeometry relative="1" as="geometry">
            <mxPoint x="94.5" y="202" as="targetPoint" />
            <mxPoint x="94.5" y="142" as="sourcePoint" />
            <Array as="points">
              <mxPoint x="30" y="117" />
              <mxPoint x="30" y="208" />
            </Array>
          </mxGeometry>
        </mxCell>
        <mxCell id="IJ_AfifvzG2OEcTAvEiw-49" value="Enter email &amp;amp; password" style="rounded=1;whiteSpace=wrap;html=1;arcSize=40;fontColor=#000000;fillColor=#ffffc0;strokeColor=#ff0000;" vertex="1" parent="2">
          <mxGeometry x="35" y="342" width="120" height="40" as="geometry" />
        </mxCell>
        <mxCell id="IJ_AfifvzG2OEcTAvEiw-57" value="Enter email, password, info" style="rounded=1;whiteSpace=wrap;html=1;arcSize=40;fontColor=#000000;fillColor=#ffffc0;strokeColor=#ff0000;" vertex="1" parent="2">
          <mxGeometry x="150" y="222" width="120" height="40" as="geometry" />
        </mxCell>
        <mxCell id="3" value="App" style="swimlane;whiteSpace=wrap" parent="1" vertex="1">
          <mxGeometry x="419.5" y="128" width="305" height="632" as="geometry" />
        </mxCell>
        <mxCell id="IJ_AfifvzG2OEcTAvEiw-59" value="&quot;Invalid username or password&quot;" style="rounded=1;whiteSpace=wrap;html=1;arcSize=40;fontColor=#000000;fillColor=#ffffc0;strokeColor=#ff0000;" vertex="1" parent="3">
          <mxGeometry x="140.5" y="402" width="120" height="40" as="geometry" />
        </mxCell>
        <mxCell id="IJ_AfifvzG2OEcTAvEiw-66" value="Log In as Manager" style="rounded=1;whiteSpace=wrap;html=1;arcSize=40;fontColor=#000000;fillColor=#ffffc0;strokeColor=#ff0000;" vertex="1" parent="3">
          <mxGeometry x="140.5" y="462" width="120" height="40" as="geometry" />
        </mxCell>
        <mxCell id="IJ_AfifvzG2OEcTAvEiw-67" value="" style="edgeStyle=orthogonalEdgeStyle;html=1;verticalAlign=bottom;endArrow=open;endSize=8;strokeColor=#ff0000;rounded=0;entryX=1;entryY=0.5;entryDx=0;entryDy=0;" edge="1" source="IJ_AfifvzG2OEcTAvEiw-66" parent="3" target="IJ_AfifvzG2OEcTAvEiw-72">
          <mxGeometry relative="1" as="geometry">
            <mxPoint x="65" y="462" as="targetPoint" />
          </mxGeometry>
        </mxCell>
        <mxCell id="IJ_AfifvzG2OEcTAvEiw-69" value="Log In as applicant" style="rounded=1;whiteSpace=wrap;html=1;arcSize=40;fontColor=#000000;fillColor=#ffffc0;strokeColor=#ff0000;" vertex="1" parent="3">
          <mxGeometry x="140.5" y="522" width="120" height="40" as="geometry" />
        </mxCell>
        <mxCell id="IJ_AfifvzG2OEcTAvEiw-72" value="" style="ellipse;html=1;shape=endState;fillColor=#000000;strokeColor=#ff0000;" vertex="1" parent="3">
          <mxGeometry x="55" y="467" width="30" height="30" as="geometry" />
        </mxCell>
        <mxCell id="IJ_AfifvzG2OEcTAvEiw-74" value="" style="ellipse;html=1;shape=endState;fillColor=#000000;strokeColor=#ff0000;" vertex="1" parent="3">
          <mxGeometry x="55" y="527" width="30" height="30" as="geometry" />
        </mxCell>
        <mxCell id="IJ_AfifvzG2OEcTAvEiw-70" value="" style="edgeStyle=orthogonalEdgeStyle;html=1;verticalAlign=bottom;endArrow=open;endSize=8;strokeColor=#ff0000;rounded=0;entryX=1;entryY=0.5;entryDx=0;entryDy=0;" edge="1" source="IJ_AfifvzG2OEcTAvEiw-69" parent="3" target="IJ_AfifvzG2OEcTAvEiw-74">
          <mxGeometry relative="1" as="geometry">
            <mxPoint x="65" y="532" as="targetPoint" />
          </mxGeometry>
        </mxCell>
        <mxCell id="IJ_AfifvzG2OEcTAvEiw-76" value="email &amp;amp;&lt;div&gt;password&lt;/div&gt;&lt;div&gt;vaild?&lt;/div&gt;" style="rhombus;whiteSpace=wrap;html=1;fontColor=#000000;fillColor=#ffffc0;strokeColor=#ff0000;" vertex="1" parent="3">
          <mxGeometry x="85" y="212" width="110" height="60" as="geometry" />
        </mxCell>
        <mxCell id="IJ_AfifvzG2OEcTAvEiw-78" value="[No]" style="edgeStyle=orthogonalEdgeStyle;html=1;align=left;verticalAlign=top;endArrow=open;endSize=8;strokeColor=#ff0000;rounded=0;entryX=0.5;entryY=0;entryDx=0;entryDy=0;" edge="1" source="IJ_AfifvzG2OEcTAvEiw-76" parent="3" target="IJ_AfifvzG2OEcTAvEiw-81">
          <mxGeometry x="-1" relative="1" as="geometry">
            <mxPoint x="95" y="292" as="targetPoint" />
          </mxGeometry>
        </mxCell>
        <mxCell id="IJ_AfifvzG2OEcTAvEiw-81" value="&quot;Invalid email/password&quot;" style="rounded=1;whiteSpace=wrap;html=1;arcSize=40;fontColor=#000000;fillColor=#ffffc0;strokeColor=#ff0000;" vertex="1" parent="3">
          <mxGeometry x="80" y="302" width="120" height="40" as="geometry" />
        </mxCell>
        <mxCell id="IJ_AfifvzG2OEcTAvEiw-88" value="&quot;Error Registerign User&quot;" style="rounded=1;whiteSpace=wrap;html=1;arcSize=40;fontColor=#000000;fillColor=#ffffc0;strokeColor=#ff0000;" vertex="1" parent="3">
          <mxGeometry x="130.5" y="142" width="120" height="40" as="geometry" />
        </mxCell>
        <mxCell id="IJ_AfifvzG2OEcTAvEiw-89" value="" style="edgeStyle=orthogonalEdgeStyle;html=1;verticalAlign=bottom;endArrow=open;endSize=8;strokeColor=#ff0000;rounded=0;entryX=0.42;entryY=0.845;entryDx=0;entryDy=0;entryPerimeter=0;" edge="1" source="IJ_AfifvzG2OEcTAvEiw-88" parent="3" target="IJ_AfifvzG2OEcTAvEiw-103">
          <mxGeometry relative="1" as="geometry">
            <mxPoint x="100.5" y="172" as="targetPoint" />
            <Array as="points">
              <mxPoint x="91" y="158" />
              <mxPoint x="91" y="150" />
            </Array>
          </mxGeometry>
        </mxCell>
        <mxCell id="IJ_AfifvzG2OEcTAvEiw-95" value="&quot;Account created successfully&quot;" style="rounded=1;whiteSpace=wrap;html=1;arcSize=40;fontColor=#000000;fillColor=#ffffc0;strokeColor=#ff0000;" vertex="1" parent="3">
          <mxGeometry x="130.5" y="72" width="120" height="40" as="geometry" />
        </mxCell>
        <mxCell id="IJ_AfifvzG2OEcTAvEiw-96" value="" style="edgeStyle=orthogonalEdgeStyle;html=1;verticalAlign=bottom;endArrow=open;endSize=8;strokeColor=#ff0000;rounded=0;entryX=0.8;entryY=0.267;entryDx=0;entryDy=0;entryPerimeter=0;" edge="1" source="IJ_AfifvzG2OEcTAvEiw-95" parent="3" target="IJ_AfifvzG2OEcTAvEiw-103">
          <mxGeometry relative="1" as="geometry">
            <mxPoint x="44.90000000000009" y="64.75" as="targetPoint" />
            <Array as="points">
              <mxPoint x="91" y="92" />
              <mxPoint x="91" y="103" />
            </Array>
          </mxGeometry>
        </mxCell>
        <mxCell id="IJ_AfifvzG2OEcTAvEiw-103" value="" style="html=1;points=[];perimeter=orthogonalPerimeter;fillColor=strokeColor;" vertex="1" parent="3">
          <mxGeometry x="40.5" y="82" width="5" height="80" as="geometry" />
        </mxCell>
        <mxCell id="4" value="Database" style="swimlane;whiteSpace=wrap" parent="1" vertex="1">
          <mxGeometry x="724.5" y="128" width="280" height="632" as="geometry" />
        </mxCell>
        <mxCell id="IJ_AfifvzG2OEcTAvEiw-52" value="Check login information" style="rounded=1;whiteSpace=wrap;html=1;arcSize=40;fontColor=#000000;fillColor=#ffffc0;strokeColor=#ff0000;" vertex="1" parent="4">
          <mxGeometry x="92.5" y="342" width="120" height="40" as="geometry" />
        </mxCell>
        <mxCell id="IJ_AfifvzG2OEcTAvEiw-53" value="" style="edgeStyle=orthogonalEdgeStyle;html=1;verticalAlign=bottom;endArrow=open;endSize=8;strokeColor=#ff0000;rounded=0;entryX=0.5;entryY=0;entryDx=0;entryDy=0;" edge="1" source="IJ_AfifvzG2OEcTAvEiw-52" parent="4" target="IJ_AfifvzG2OEcTAvEiw-54">
          <mxGeometry relative="1" as="geometry">
            <mxPoint x="135.5" y="352" as="targetPoint" />
          </mxGeometry>
        </mxCell>
        <mxCell id="IJ_AfifvzG2OEcTAvEiw-54" value="Login valid?" style="rhombus;whiteSpace=wrap;html=1;fontColor=#000000;fillColor=#ffffc0;strokeColor=#ff0000;" vertex="1" parent="4">
          <mxGeometry x="105.5" y="396" width="94.5" height="52" as="geometry" />
        </mxCell>
        <mxCell id="IJ_AfifvzG2OEcTAvEiw-56" value="[Yes]" style="edgeStyle=orthogonalEdgeStyle;html=1;align=left;verticalAlign=top;endArrow=open;endSize=8;strokeColor=#ff0000;rounded=0;entryX=0.5;entryY=0;entryDx=0;entryDy=0;" edge="1" source="IJ_AfifvzG2OEcTAvEiw-54" parent="4" target="IJ_AfifvzG2OEcTAvEiw-63">
          <mxGeometry x="-1" relative="1" as="geometry">
            <mxPoint x="135.5" y="432" as="targetPoint" />
          </mxGeometry>
        </mxCell>
        <mxCell id="IJ_AfifvzG2OEcTAvEiw-63" value="Role?" style="rhombus;whiteSpace=wrap;html=1;fontColor=#000000;fillColor=#ffffc0;strokeColor=#ff0000;" vertex="1" parent="4">
          <mxGeometry x="112.5" y="502" width="80" height="40" as="geometry" />
        </mxCell>
        <mxCell id="IJ_AfifvzG2OEcTAvEiw-83" value="Register user" style="rounded=1;whiteSpace=wrap;html=1;arcSize=40;fontColor=#000000;fillColor=#ffffc0;strokeColor=#ff0000;" vertex="1" parent="4">
          <mxGeometry x="92.5" y="222" width="120" height="40" as="geometry" />
        </mxCell>
        <mxCell id="IJ_AfifvzG2OEcTAvEiw-84" value="" style="edgeStyle=orthogonalEdgeStyle;html=1;verticalAlign=bottom;endArrow=open;endSize=8;strokeColor=#ff0000;rounded=0;entryX=0.5;entryY=1;entryDx=0;entryDy=0;" edge="1" source="IJ_AfifvzG2OEcTAvEiw-83" parent="4" target="IJ_AfifvzG2OEcTAvEiw-85">
          <mxGeometry relative="1" as="geometry">
            <mxPoint x="152.5" y="312" as="targetPoint" />
          </mxGeometry>
        </mxCell>
        <mxCell id="IJ_AfifvzG2OEcTAvEiw-85" value="Succesful?" style="rhombus;whiteSpace=wrap;html=1;fontColor=#000000;fillColor=#ffffc0;strokeColor=#ff0000;" vertex="1" parent="4">
          <mxGeometry x="112.75" y="142" width="80" height="40" as="geometry" />
        </mxCell>
        <mxCell id="IJ_AfifvzG2OEcTAvEiw-86" value="[Yes]" style="edgeStyle=orthogonalEdgeStyle;html=1;align=left;verticalAlign=bottom;endArrow=open;endSize=8;strokeColor=#ff0000;rounded=0;entryX=0.5;entryY=1;entryDx=0;entryDy=0;" edge="1" source="IJ_AfifvzG2OEcTAvEiw-85" parent="4" target="IJ_AfifvzG2OEcTAvEiw-92">
          <mxGeometry x="-1" relative="1" as="geometry">
            <mxPoint x="152.5" y="92" as="targetPoint" />
          </mxGeometry>
        </mxCell>
        <mxCell id="IJ_AfifvzG2OEcTAvEiw-92" value="Add user info to database" style="rounded=1;whiteSpace=wrap;html=1;arcSize=40;fontColor=#000000;fillColor=#ffffc0;strokeColor=#ff0000;" vertex="1" parent="4">
          <mxGeometry x="92.5" y="72" width="120" height="40" as="geometry" />
        </mxCell>
        <mxCell id="IJ_AfifvzG2OEcTAvEiw-55" value="[No]" style="edgeStyle=orthogonalEdgeStyle;html=1;align=left;verticalAlign=bottom;endArrow=open;endSize=8;strokeColor=#ff0000;rounded=0;entryX=1;entryY=0.5;entryDx=0;entryDy=0;" edge="1" source="IJ_AfifvzG2OEcTAvEiw-54" parent="1" target="IJ_AfifvzG2OEcTAvEiw-59">
          <mxGeometry x="-0.5446" y="-14" relative="1" as="geometry">
            <mxPoint x="630" y="474" as="targetPoint" />
            <mxPoint as="offset" />
          </mxGeometry>
        </mxCell>
        <mxCell id="IJ_AfifvzG2OEcTAvEiw-60" value="" style="edgeStyle=orthogonalEdgeStyle;html=1;verticalAlign=bottom;endArrow=open;endSize=8;strokeColor=#ff0000;rounded=0;entryX=0.5;entryY=1;entryDx=0;entryDy=0;" edge="1" source="IJ_AfifvzG2OEcTAvEiw-59" parent="1" target="IJ_AfifvzG2OEcTAvEiw-49">
          <mxGeometry relative="1" as="geometry">
            <mxPoint x="565" y="540" as="targetPoint" />
          </mxGeometry>
        </mxCell>
        <mxCell id="IJ_AfifvzG2OEcTAvEiw-65" value="[Applicant]" style="edgeStyle=orthogonalEdgeStyle;html=1;align=left;verticalAlign=top;endArrow=open;endSize=8;strokeColor=#ff0000;rounded=0;entryX=1;entryY=0.75;entryDx=0;entryDy=0;" edge="1" source="IJ_AfifvzG2OEcTAvEiw-63" parent="1" target="IJ_AfifvzG2OEcTAvEiw-69">
          <mxGeometry x="0.2201" relative="1" as="geometry">
            <mxPoint x="870" y="650" as="targetPoint" />
            <mxPoint x="1" as="offset" />
          </mxGeometry>
        </mxCell>
        <mxCell id="IJ_AfifvzG2OEcTAvEiw-64" value="[Manager]" style="edgeStyle=orthogonalEdgeStyle;html=1;align=left;verticalAlign=bottom;endArrow=open;endSize=8;strokeColor=#ff0000;rounded=0;entryX=1;entryY=0.5;entryDx=0;entryDy=0;" edge="1" source="IJ_AfifvzG2OEcTAvEiw-63" parent="1" target="IJ_AfifvzG2OEcTAvEiw-66">
          <mxGeometry x="0.1944" relative="1" as="geometry">
            <mxPoint x="650" y="600" as="targetPoint" />
            <mxPoint as="offset" />
          </mxGeometry>
        </mxCell>
        <mxCell id="IJ_AfifvzG2OEcTAvEiw-50" value="" style="edgeStyle=orthogonalEdgeStyle;html=1;verticalAlign=bottom;endArrow=open;endSize=8;strokeColor=#ff0000;rounded=0;entryX=0;entryY=0.5;entryDx=0;entryDy=0;" edge="1" source="IJ_AfifvzG2OEcTAvEiw-49" parent="1" target="IJ_AfifvzG2OEcTAvEiw-52">
          <mxGeometry relative="1" as="geometry">
            <mxPoint x="800" y="400" as="targetPoint" />
          </mxGeometry>
        </mxCell>
        <mxCell id="IJ_AfifvzG2OEcTAvEiw-58" value="" style="edgeStyle=orthogonalEdgeStyle;html=1;verticalAlign=bottom;endArrow=open;endSize=8;strokeColor=#ff0000;rounded=0;entryX=0;entryY=0.5;entryDx=0;entryDy=0;" edge="1" source="IJ_AfifvzG2OEcTAvEiw-57" parent="1" target="IJ_AfifvzG2OEcTAvEiw-76">
          <mxGeometry relative="1" as="geometry">
            <mxPoint x="520" y="360" as="targetPoint" />
          </mxGeometry>
        </mxCell>
        <mxCell id="IJ_AfifvzG2OEcTAvEiw-82" value="" style="edgeStyle=orthogonalEdgeStyle;html=1;verticalAlign=bottom;endArrow=open;endSize=8;strokeColor=#ff0000;rounded=0;entryX=0.5;entryY=1;entryDx=0;entryDy=0;" edge="1" source="IJ_AfifvzG2OEcTAvEiw-81" parent="1" target="IJ_AfifvzG2OEcTAvEiw-57">
          <mxGeometry relative="1" as="geometry">
            <mxPoint x="690" y="513" as="targetPoint" />
          </mxGeometry>
        </mxCell>
        <mxCell id="IJ_AfifvzG2OEcTAvEiw-77" value="[Yes]" style="edgeStyle=orthogonalEdgeStyle;html=1;align=left;verticalAlign=bottom;endArrow=open;endSize=8;strokeColor=#ff0000;rounded=0;entryX=0;entryY=0.5;entryDx=0;entryDy=0;" edge="1" source="IJ_AfifvzG2OEcTAvEiw-76" parent="1" target="IJ_AfifvzG2OEcTAvEiw-83">
          <mxGeometry x="-1" relative="1" as="geometry">
            <mxPoint x="699.5" y="360" as="targetPoint" />
          </mxGeometry>
        </mxCell>
        <mxCell id="IJ_AfifvzG2OEcTAvEiw-87" value="[No]" style="edgeStyle=orthogonalEdgeStyle;html=1;align=left;verticalAlign=top;endArrow=open;endSize=8;strokeColor=#ff0000;rounded=0;entryX=1;entryY=0.5;entryDx=0;entryDy=0;" edge="1" source="IJ_AfifvzG2OEcTAvEiw-85" parent="1" target="IJ_AfifvzG2OEcTAvEiw-88">
          <mxGeometry x="-0.8199" relative="1" as="geometry">
            <mxPoint x="640" y="330" as="targetPoint" />
            <Array as="points">
              <mxPoint x="780" y="290" />
              <mxPoint x="780" y="290" />
            </Array>
            <mxPoint as="offset" />
          </mxGeometry>
        </mxCell>
        <mxCell id="IJ_AfifvzG2OEcTAvEiw-93" value="" style="edgeStyle=orthogonalEdgeStyle;html=1;verticalAlign=bottom;endArrow=open;endSize=8;strokeColor=#ff0000;rounded=0;entryX=1;entryY=0.5;entryDx=0;entryDy=0;" edge="1" source="IJ_AfifvzG2OEcTAvEiw-92" parent="1" target="IJ_AfifvzG2OEcTAvEiw-95">
          <mxGeometry relative="1" as="geometry">
            <mxPoint x="690" y="190" as="targetPoint" />
          </mxGeometry>
        </mxCell>
        <mxCell id="IJ_AfifvzG2OEcTAvEiw-101" value="" style="edgeStyle=orthogonalEdgeStyle;html=1;verticalAlign=bottom;endArrow=open;endSize=8;strokeColor=#ff0000;rounded=0;entryX=0.5;entryY=0;entryDx=0;entryDy=0;exitX=-0.24;exitY=0.485;exitDx=0;exitDy=0;exitPerimeter=0;" edge="1" parent="1" source="IJ_AfifvzG2OEcTAvEiw-103" target="IJ_AfifvzG2OEcTAvEiw-44">
          <mxGeometry relative="1" as="geometry">
            <mxPoint x="276" y="183" as="targetPoint" />
            <mxPoint x="456.4000000000001" y="242.25" as="sourcePoint" />
            <Array as="points">
              <mxPoint x="370" y="249" />
              <mxPoint x="370" y="280" />
              <mxPoint x="224" y="280" />
            </Array>
          </mxGeometry>
        </mxCell>
      </root>
    </mxGraphModel>
  </diagram>
</mxfile>
